<svg width="28" height="28" viewBox="0 0 28 28" fill="none" xmlns="http://www.w3.org/2000/svg">
<path d="M3.04346 8.10031C3.04346 17.4094 10.5905 24.9565 19.8996 24.9565H22.4281C23.0987 24.9565 23.7418 24.6901 24.2159 24.2159C24.6901 23.7418 24.9565 23.0987 24.9565 22.4281V20.8863C24.9565 20.3064 24.5621 19.8008 23.9991 19.6603L19.0287 18.4174C18.5343 18.2938 18.0151 18.4792 17.7106 18.886L16.6206 20.339C16.3037 20.7616 15.7564 20.9481 15.2608 20.7661C13.4211 20.0897 11.7504 19.0215 10.3644 17.6355C8.97842 16.2495 7.91026 14.5788 7.23391 12.7391C7.05186 12.2436 7.2384 11.6963 7.66093 11.3794L9.11393 10.2894C9.52185 9.98483 9.70615 9.46454 9.58253 8.97122L8.33967 4.00089C8.27128 3.72747 8.11348 3.48476 7.89136 3.31129C7.66923 3.13782 7.3955 3.04355 7.11366 3.04346H5.57189C4.9013 3.04346 4.25819 3.30984 3.78402 3.78402C3.30984 4.25819 3.04346 4.9013 3.04346 5.57189V8.10031Z" stroke="#365871" stroke-width="1.68562" stroke-linecap="round" stroke-linejoin="round"/>
</svg>
