<svg width="28" height="28" viewBox="0 0 28 28" fill="none" xmlns="http://www.w3.org/2000/svg">
<path d="M17.5002 12.25C17.5002 13.1783 17.1314 14.0685 16.4751 14.7249C15.8187 15.3813 14.9284 15.75 14.0002 15.75C13.0719 15.75 12.1817 15.3813 11.5253 14.7249C10.8689 14.0685 10.5002 13.1783 10.5002 12.25C10.5002 11.3217 10.8689 10.4315 11.5253 9.77513C12.1817 9.11875 13.0719 8.75 14.0002 8.75C14.9284 8.75 15.8187 9.11875 16.4751 9.77513C17.1314 10.4315 17.5002 11.3217 17.5002 12.25Z" stroke="#365871" stroke-width="1.75" stroke-linecap="round" stroke-linejoin="round"/>
<path d="M22.7502 12.25C22.7502 20.5823 14.0002 25.375 14.0002 25.375C14.0002 25.375 5.25018 20.5823 5.25018 12.25C5.25018 9.92936 6.17206 7.70376 7.813 6.06282C9.45394 4.42187 11.6795 3.5 14.0002 3.5C16.3208 3.5 18.5464 4.42187 20.1874 6.06282C21.8283 7.70376 22.7502 9.92936 22.7502 12.25Z" stroke="#365871" stroke-width="1.75" stroke-linecap="round" stroke-linejoin="round"/>
</svg>
