<svg width="28" height="28" viewBox="0 0 28 28" fill="none" xmlns="http://www.w3.org/2000/svg">
<path d="M25.5391 4.15625H2.46094C1.10677 4.15625 0 5.25815 0 6.61719V21.3828C0 22.7423 1.10748 23.8438 2.46094 23.8438H25.5391C26.8932 23.8438 28 22.7419 28 21.3828V6.61719C28 5.25782 26.8927 4.15625 25.5391 4.15625ZM25.1612 5.79688L14.6357 16.3567C14.315 16.6784 13.6852 16.6786 13.3643 16.3567L2.83883 5.79688H25.1612ZM1.64062 21.0812V6.91879L8.69887 14L1.64062 21.0812ZM2.83883 22.2031L9.85709 15.162L12.2024 17.5149C13.1634 18.4791 14.8369 18.4787 15.7977 17.5149L18.143 15.1621L25.1612 22.2031H2.83883ZM26.3594 21.0812L19.3011 14L26.3594 6.91879V21.0812Z" fill="#CD2959"/>
</svg>
