<svg width="28" height="28" viewBox="0 0 28 28" fill="none" xmlns="http://www.w3.org/2000/svg">
<path fill-rule="evenodd" clip-rule="evenodd" d="M20.9997 11.9583C17.9407 11.9583 15.458 14.441 15.458 17.5C15.458 20.559 17.9407 23.0416 20.9997 23.0416C24.0587 23.0416 26.5413 20.559 26.5413 17.5C26.5413 14.441 24.0587 11.9583 20.9997 11.9583ZM18.7305 18.7016L19.8972 19.8683C19.9844 19.9556 20.0891 20.0234 20.2044 20.0674C20.3196 20.1113 20.4429 20.1304 20.5661 20.1233C20.6893 20.1163 20.8095 20.0833 20.9191 20.0265C21.0286 19.9696 21.1248 19.8903 21.2015 19.7936L23.4357 16.9773C23.5679 16.7944 23.6244 16.5676 23.5935 16.344C23.5627 16.1205 23.4467 15.9175 23.2698 15.7773C23.093 15.6371 22.8688 15.5706 22.6441 15.5916C22.4195 15.6126 22.2115 15.7195 22.0637 15.89L20.4408 17.9375L19.9683 17.465C19.8034 17.3055 19.5824 17.2172 19.353 17.2191C19.1236 17.221 18.9041 17.3129 18.7417 17.4751C18.5794 17.6372 18.4873 17.8566 18.4852 18.0861C18.4831 18.3155 18.5712 18.5365 18.7305 18.7016Z" fill="#365871"/>
<path fill-rule="evenodd" clip-rule="evenodd" d="M18.2615 11.375H1.45801V18.6666C1.45801 19.5171 1.79634 20.3338 2.39717 20.9358C2.99943 21.5369 3.81546 21.8746 4.66634 21.875H15.9153C14.866 20.6591 14.2896 19.106 14.2913 17.5C14.2917 16.2049 14.6668 14.9375 15.3712 13.8507C16.0757 12.764 17.0794 11.9041 18.2615 11.375ZM9.33417 16.625H5.83301C5.60094 16.625 5.37838 16.7172 5.21429 16.8813C5.05019 17.0454 4.95801 17.2679 4.95801 17.5C4.95801 17.732 5.05019 17.9546 5.21429 18.1187C5.37838 18.2828 5.60094 18.375 5.83301 18.375H9.33417C9.56624 18.375 9.7888 18.2828 9.95289 18.1187C10.117 17.9546 10.2092 17.732 10.2092 17.5C10.2092 17.2679 10.117 17.0454 9.95289 16.8813C9.7888 16.7172 9.56624 16.625 9.33417 16.625ZM1.45801 9.62498H24.208V8.16665C24.208 7.31615 23.8697 6.49948 23.2688 5.89748C22.6666 5.29641 21.8506 4.95867 20.9997 4.95831H4.66634C3.81584 4.95831 2.99917 5.29665 2.39717 5.89748C1.7961 6.49974 1.45837 7.31576 1.45801 8.16665V9.62498Z" fill="#365871"/>
</svg>
