<svg width="28" height="28" viewBox="0 0 28 28" fill="none" xmlns="http://www.w3.org/2000/svg">
<path d="M7 22.75C7.9665 22.75 8.75 21.9665 8.75 21C8.75 20.0335 7.9665 19.25 7 19.25C6.0335 19.25 5.25 20.0335 5.25 21C5.25 21.9665 6.0335 22.75 7 22.75Z" fill="#365871"/>
<path d="M22.167 22.75C23.1335 22.75 23.917 21.9665 23.917 21C23.917 20.0335 23.1335 19.25 22.167 19.25C21.2005 19.25 20.417 20.0335 20.417 21C20.417 21.9665 21.2005 22.75 22.167 22.75Z" fill="#365871"/>
<path fill-rule="evenodd" clip-rule="evenodd" d="M16.9167 20.4167V5.83334C16.9169 5.75667 16.902 5.68071 16.8727 5.60983C16.8435 5.53895 16.8005 5.47456 16.7463 5.42034C16.6921 5.36613 16.6277 5.32317 16.5568 5.29394C16.486 5.2647 16.41 5.24977 16.3333 5.25H2.33334C2.25667 5.24977 2.18071 5.2647 2.10983 5.29394C2.03896 5.32317 1.97455 5.36613 1.92034 5.42034C1.86613 5.47456 1.82317 5.53895 1.79394 5.60983C1.7647 5.68071 1.74977 5.75667 1.75 5.83334V19.8333C1.74977 19.91 1.7647 19.986 1.79394 20.0568C1.82317 20.1277 1.86613 20.1921 1.92034 20.2463C1.97455 20.3005 2.03896 20.3435 2.10983 20.3727C2.18071 20.402 2.25667 20.4169 2.33334 20.4167H4.14167C4.41234 19.0861 5.59009 18.0833 7 18.0833C8.40992 18.0833 9.58767 19.0861 9.85833 20.4167H16.9167ZM25.025 20.4167H25.6667C25.8214 20.4167 25.9698 20.3552 26.0791 20.2458C26.1885 20.1364 26.25 19.988 26.25 19.8333V16.9167H21C20.7702 16.9167 20.5426 16.8715 20.3303 16.7835C20.118 16.6955 19.9251 16.5665 19.7628 16.4039C19.6001 16.2415 19.4711 16.0487 19.3832 15.8364C19.2952 15.6241 19.2499 15.3965 19.25 15.1667V9.91667H18.0833V20.4167H19.3083C19.579 19.0861 20.7568 18.0833 22.1667 18.0833C23.5766 18.0833 24.7543 19.0861 25.025 20.4167Z" fill="#365871"/>
<path fill-rule="evenodd" clip-rule="evenodd" d="M20.417 9.91663V15.1666C20.4168 15.2433 20.4317 15.3193 20.4609 15.3901C20.4902 15.461 20.5331 15.5254 20.5873 15.5796C20.6415 15.6338 20.7059 15.6768 20.7768 15.706C20.8477 15.7353 20.9237 15.7502 21.0003 15.75H26.2503V14.483C26.2503 14.3283 26.1888 14.1799 26.0794 14.0705L22.0964 10.0875C21.987 9.97814 21.8387 9.91666 21.684 9.91663H20.417Z" fill="#365871"/>
</svg>
