<svg width="28" height="28" viewBox="0 0 28 28" fill="none" xmlns="http://www.w3.org/2000/svg">
<g clip-path="url(#clip0_1284_244)">
<path d="M24.3042 13.9999C26.7172 12.5584 27.5345 9.44236 26.1242 6.99983C24.7139 4.55729 21.6068 3.70716 19.1521 5.07622C19.1102 2.26581 16.8204 0 14 0C11.1796 0 8.88965 2.26581 8.8479 5.07642C6.39308 3.70737 3.28586 4.55757 1.87567 7.00024C0.465492 9.44271 1.28274 12.5587 3.69589 14.0001C1.28281 15.4416 0.465492 18.5576 1.87574 21.0001C3.28599 23.4427 6.39321 24.2928 8.84804 22.9237C8.88971 25.7343 11.1797 28.0002 14.0001 28.0001C16.8206 28.0001 19.1104 25.7342 19.1521 22.9237C21.607 24.2927 24.7143 23.4426 26.1243 20.9998C27.5345 18.5572 26.7172 15.4412 24.3042 13.9999ZM14 18.7198C11.3933 18.7198 9.28011 16.6067 9.28011 13.9999C9.28011 11.3932 11.3933 9.28006 14 9.28006C16.6066 9.28006 18.7199 11.3932 18.7199 13.9999C18.7199 16.6067 16.6067 18.7198 14 18.7198Z" fill="#365871"/>
</g>
<defs>
<clipPath id="clip0_1284_244">
<rect width="28" height="28" fill="white"/>
</clipPath>
</defs>
</svg>
