<svg width="28" height="28" viewBox="0 0 28 28" fill="none" xmlns="http://www.w3.org/2000/svg">
<g clip-path="url(#clip0_1284_257)">
<path d="M1.75 14.8582V25.3582C1.75 26.3242 2.53575 27.1082 3.5 27.1082H12.25V14.8582H1.75ZM26.25 7.85816H20.713C21.1103 7.58691 21.4515 7.31741 21.6895 7.07591C23.1017 5.65666 23.1017 3.34666 21.6895 1.92741C20.3175 0.544909 17.927 0.548409 16.5568 1.92741C15.7973 2.68866 13.7847 5.78791 14.063 7.85816H13.937C14.2135 5.78791 12.201 2.68866 11.4432 1.92741C10.0712 0.548409 7.68075 0.548409 6.3105 1.92741C4.9 3.34666 4.9 5.65666 6.30875 7.07591C6.5485 7.31741 6.88975 7.58691 7.287 7.85816H1.75C0.78575 7.85816 0 8.64391 0 9.60816V12.2332C0 12.7162 0.392 13.1082 0.875 13.1082H12.25V9.60816H15.75V13.1082H27.125C27.608 13.1082 28 12.7162 28 12.2332V9.60816C28 8.64391 27.216 7.85816 26.25 7.85816ZM12.1467 7.80041C12.1467 7.80041 12.0732 7.85816 11.823 7.85816C10.6138 7.85816 8.3055 6.60166 7.55125 5.84216C6.818 5.10366 6.818 3.89966 7.55125 3.16116C7.9065 2.80416 8.37725 2.60816 8.87775 2.60816C9.3765 2.60816 9.84725 2.80416 10.2025 3.16116C11.382 4.34766 12.5545 7.37866 12.1467 7.80041ZM16.1753 7.85816C15.9268 7.85816 15.8533 7.80216 15.8533 7.80041C15.4455 7.37866 16.618 4.34766 17.7975 3.16116C18.5028 2.44891 19.7365 2.44541 20.4488 3.16116C21.1838 3.89966 21.1838 5.10366 20.4488 5.84216C19.6945 6.60166 17.3862 7.85816 16.1753 7.85816ZM15.75 14.8582V27.1082H24.5C25.466 27.1082 26.25 26.3242 26.25 25.3582V14.8582H15.75Z" fill="#365871"/>
</g>
<defs>
<clipPath id="clip0_1284_257">
<rect width="28" height="28" fill="white"/>
</clipPath>
</defs>
</svg>
