<svg width="28" height="28" viewBox="0 0 28 28" fill="none" xmlns="http://www.w3.org/2000/svg">
<path d="M22.8666 20.0668C21.9104 20.0668 21.0908 20.6428 20.7299 21.4668H16.6284C16.2429 20.3801 15.2175 19.6 13.9998 19.6C12.7821 19.6 11.7576 20.3801 11.3712 21.4668H7.26972C6.9088 20.6428 6.08924 20.0668 5.13304 20.0668C3.8442 20.0668 2.7998 21.1112 2.7998 22.4C2.7998 23.6889 3.8442 24.7333 5.13304 24.7333C6.09008 24.7333 6.90965 24.1556 7.26972 23.3333H11.3712C11.7567 24.418 12.7821 25.2 13.9998 25.2C15.2175 25.2 16.2429 24.418 16.6284 23.3333H20.7299C21.09 24.1556 21.9095 24.7333 22.8666 24.7333C24.1554 24.7333 25.1998 23.6889 25.1998 22.4C25.1998 21.1112 24.1554 20.0668 22.8666 20.0668ZM13.9998 23.3333C13.4838 23.3333 13.0666 22.9161 13.0666 22.4C13.0666 21.884 13.4838 21.4668 13.9998 21.4668C14.5158 21.4668 14.933 21.884 14.933 22.4C14.933 22.9161 14.5158 23.3333 13.9998 23.3333ZM13.9998 2.80005C10.3931 2.80005 7.46656 5.72381 7.46656 9.33329C7.46656 11.1362 8.19736 12.7694 9.38064 13.9527L13.9998 18.2L18.6201 13.9508C19.228 13.3452 19.7101 12.6252 20.0384 11.8324C20.3667 11.0396 20.5348 10.1897 20.533 9.33161C20.533 5.72577 17.6084 2.80005 13.9998 2.80005ZM13.9998 12.1333C12.4539 12.1333 11.1998 10.8792 11.1998 9.33329C11.1998 7.78741 12.4539 6.53329 13.9998 6.53329C15.5465 6.53329 16.7998 7.78741 16.7998 9.33329C16.7998 10.8792 15.5465 12.1333 13.9998 12.1333Z" fill="#365871"/>
</svg>
