<svg width="28" height="28" viewBox="0 0 28 28" fill="none" xmlns="http://www.w3.org/2000/svg">
<path d="M4.55277 21.3767C3.25865 19.9532 2.48218 18.4002 2.48218 15.812C2.48218 11.2826 5.71748 7.27079 10.2469 5.2002L11.4116 6.88255C7.14102 9.21197 6.23513 12.1885 5.97631 14.1296C6.62337 13.7414 7.52925 13.612 8.43514 13.7414C10.7646 14.0002 12.5763 15.812 12.5763 18.2708C12.5763 19.4355 12.0587 20.6002 11.2822 21.5061C10.3763 22.412 9.34102 22.8002 8.0469 22.8002C6.62337 22.8002 5.32925 22.1532 4.55277 21.3767ZM17.494 21.3767C16.1999 19.9532 15.4234 18.4002 15.4234 15.812C15.4234 11.2826 18.6587 7.27079 23.1881 5.2002L24.3528 6.88255C20.0822 9.21197 19.1763 12.1885 18.9175 14.1296C19.5646 13.7414 20.4705 13.612 21.3764 13.7414C23.7058 14.0002 25.5175 15.812 25.5175 18.2708C25.5175 19.4355 24.9999 20.6002 24.2234 21.5061C23.4469 22.412 22.2822 22.8002 20.9881 22.8002C19.5646 22.8002 18.2705 22.1532 17.494 21.3767Z" fill="#365871"/>
</svg>
