<svg width="12" height="12" viewBox="0 0 12 12" fill="none" xmlns="http://www.w3.org/2000/svg">
<g clip-path="url(#clip0_191_876)">
<path d="M11.9877 3.52803C11.9596 2.89041 11.8565 2.45209 11.7088 2.07223C11.5564 1.66905 11.322 1.30809 11.0149 1.00801C10.7148 0.703262 10.3514 0.46645 9.95289 0.316468C9.57088 0.168783 9.13481 0.0656378 8.49721 0.0375542C7.85483 0.00703262 7.65091 0 6.02168 0C4.39246 0 4.18853 0.00703262 3.54854 0.0351631C2.91094 0.0632936 2.4726 0.166486 2.09286 0.314077C1.68956 0.46645 1.3286 0.700871 1.02852 1.00801C0.72377 1.30807 0.487076 1.67142 0.336976 2.06994C0.189291 2.45209 0.0861691 2.88806 0.058062 3.52564C0.0275639 4.16803 0.0205078 4.37195 0.0205078 6.00117C0.0205078 7.6304 0.0275639 7.83434 0.0556709 8.47431C0.0838014 9.11194 0.186993 9.55026 0.334702 9.93011C0.487076 10.3333 0.72377 10.6943 1.02852 10.9943C1.3286 11.2991 1.69195 11.5359 2.09047 11.6859C2.47257 11.8336 2.90855 11.9367 3.54627 11.9648C4.18614 11.993 4.39018 12 6.01941 12C7.64863 12 7.85255 11.993 8.49255 11.9648C9.13015 11.9367 9.56849 11.8336 9.94823 11.6859C10.3471 11.5317 10.7093 11.2958 11.0116 10.9935C11.314 10.6911 11.5499 10.3289 11.7041 9.93011C11.8517 9.54798 11.9549 9.11191 11.983 8.47431C12.0112 7.83434 12.0182 7.6304 12.0182 6.00117C12.0182 4.37195 12.0158 4.168 11.9877 3.52803ZM10.9071 8.42743C10.8812 9.01348 10.7828 9.32995 10.7008 9.54093C10.4991 10.0637 10.0842 10.4786 9.56143 10.6803C9.35046 10.7623 9.03171 10.8607 8.44794 10.8865C7.815 10.9147 7.62519 10.9216 6.02407 10.9216C4.42295 10.9216 4.23075 10.9147 3.60009 10.8865C3.01404 10.8607 2.69757 10.7623 2.48659 10.6803C2.22645 10.5841 1.98967 10.4317 1.79744 10.2325C1.59818 10.0379 1.44581 9.80348 1.34965 9.54332C1.2676 9.33234 1.16917 9.01348 1.14345 8.42982C1.11523 7.79688 1.10829 7.60695 1.10829 6.00584C1.10829 4.40472 1.11523 4.21252 1.14345 3.58197C1.16917 2.99592 1.2676 2.67945 1.34965 2.46847C1.44581 2.20822 1.59818 1.97148 1.79983 1.77921C1.99431 1.57995 2.22873 1.42758 2.48898 1.33153C2.69996 1.24949 3.01882 1.15103 3.60248 1.12522C4.23542 1.09709 4.42535 1.09006 6.02635 1.09006C7.62985 1.09006 7.81966 1.09709 8.45033 1.12522C9.03638 1.15105 9.35285 1.24946 9.56383 1.33151C9.82396 1.42758 10.0608 1.57995 10.253 1.77921C10.4522 1.9738 10.6046 2.20822 10.7008 2.46847C10.7828 2.67945 10.8812 2.99819 10.9071 3.58197C10.9352 4.21491 10.9422 4.40472 10.9422 6.00584C10.9422 7.60695 10.9352 7.79449 10.9071 8.42743Z" fill="#F6F6F6"/>
<path d="M6.02306 2.91867C4.32122 2.91867 2.94043 4.29936 2.94043 6.00131C2.94043 7.70325 4.32122 9.08394 6.02306 9.08394C7.72496 9.08394 9.1057 7.70325 9.1057 6.00131C9.1057 4.29936 7.72496 2.91867 6.02306 2.91867ZM6.02306 8.00092C4.91899 8.00092 4.02341 7.10548 4.02341 6.00131C4.02341 4.89714 4.91899 4.0017 6.02304 4.0017C7.12721 4.0017 8.02267 4.89714 8.02267 6.00131C8.02267 7.10548 7.12719 8.00092 6.02306 8.00092ZM9.94731 2.79677C9.94731 3.19421 9.62506 3.51645 9.22755 3.51645C8.83014 3.51645 8.5079 3.19421 8.5079 2.79677C8.5079 2.39929 8.83013 2.07715 9.22757 2.07715C9.62506 2.07715 9.94731 2.39927 9.94731 2.79677Z" fill="#F6F6F6"/>
</g>
<defs>
<clipPath id="clip0_191_876">
<rect width="12" height="12" fill="white"/>
</clipPath>
</defs>
</svg>
